<svg xmlns="http://www.w3.org/2000/svg" width="14" height="12" viewBox="0 0 14 12" fill="none"><path d="M0.333008 1.99984C0.333008 1.64622 0.473484 1.30708 0.723532 1.05703C0.973581 0.80698 1.31272 0.666504 1.66634 0.666504H12.333C12.6866 0.666504 13.0258 0.80698 13.2758 1.05703C13.5259 1.30708 13.6663 1.64622 13.6663 1.99984V9.99984C13.6663 10.3535 13.5259 10.6926 13.2758 10.9426C13.0258 11.1927 12.6866 11.3332 12.333 11.3332H1.66634C1.31272 11.3332 0.973581 11.1927 0.723532 10.9426C0.473484 10.6926 0.333008 10.3535 0.333008 9.99984V1.99984ZM2.67901 1.99984L6.99967 5.7805L11.3203 1.99984H2.67901ZM12.333 2.88584L7.43901 7.1685C7.31744 7.27502 7.16131 7.33374 6.99967 7.33374C6.83804 7.33374 6.68191 7.27502 6.56034 7.1685L1.66634 2.88584V9.99984H12.333V2.88584Z" fill="#1D1E25"></path></svg>