<svg xmlns="http://www.w3.org/2000/svg" width="16" height="17" viewBox="0 0 16 17" fill="none"><path d="M6.97664 0.912094C7.29875 -0.123042 8.70125 -0.123042 9.02336 0.912095L10.1742 4.61059C10.3183 5.07351 10.7314 5.38694 11.1976 5.38694H14.9219C15.9643 5.38694 16.3977 6.77971 15.5544 7.41946L12.5413 9.70525C12.1642 9.99135 12.0064 10.4985 12.1505 10.9614L13.3013 14.6599C13.6234 15.695 12.4888 16.5558 11.6455 15.9161L8.63247 13.6303C8.25534 13.3442 7.74466 13.3442 7.36753 13.6303L4.35449 15.9161C3.5112 16.5558 2.37655 15.695 2.69866 14.6599L3.84954 10.9614C3.99359 10.4985 3.83579 9.99135 3.45866 9.70525L0.445614 7.41946C-0.397678 6.77971 0.035717 5.38694 1.07808 5.38694H4.80241C5.26857 5.38694 5.68171 5.07351 5.82576 4.61059L6.97664 0.912094Z" fill="#FFD88D"></path></svg>