<svg xmlns="http://www.w3.org/2000/svg" width="26" height="28" viewBox="0 0 26 28" fill="none"><path fill-rule="evenodd" clip-rule="evenodd" d="M23.8851 8.69626L23.1079 7.34769C22.4505 6.20659 20.9935 5.81294 19.8508 6.46769C19.3069 6.7881 18.6578 6.87901 18.0468 6.72036C17.4358 6.56171 16.913 6.16653 16.5937 5.62197C16.3882 5.27584 16.2778 4.8816 16.2736 4.47912C16.2922 3.83383 16.0487 3.20852 15.5988 2.74564C15.1488 2.28275 14.5306 2.02171 13.8851 2.02197H12.3194C11.6869 2.02197 11.0805 2.27398 10.6344 2.72226C10.1883 3.17053 9.93918 3.77811 9.94222 4.41054C9.92348 5.71631 8.85955 6.76496 7.55365 6.76483C7.15117 6.76065 6.75692 6.65026 6.41079 6.44483C5.26813 5.79008 3.81111 6.18373 3.15365 7.32483L2.31936 8.69626C1.66269 9.83593 2.05099 11.292 3.18793 11.9534C3.92697 12.3801 4.38223 13.1686 4.38223 14.022C4.38223 14.8753 3.92697 15.6639 3.18793 16.0905C2.05243 16.7475 1.66371 18.2 2.31936 19.3363L3.10793 20.6963C3.41598 21.2521 3.93284 21.6623 4.54413 21.836C5.15541 22.0097 5.81073 21.9327 6.36508 21.622C6.91003 21.304 7.55942 21.2169 8.16891 21.38C8.7784 21.5431 9.29749 21.9429 9.61079 22.4905C9.81622 22.8367 9.92661 23.2309 9.93079 23.6334C9.93079 24.9526 11.0002 26.022 12.3194 26.022H13.8851C15.1998 26.022 16.2674 24.9595 16.2736 23.6448C16.2706 23.0104 16.5213 22.4011 16.9699 21.9525C17.4185 21.5039 18.0278 21.2532 18.6622 21.2563C19.0637 21.267 19.4564 21.3769 19.8051 21.5763C20.9447 22.2329 22.4008 21.8446 23.0622 20.7077L23.8851 19.3363C24.2036 18.7896 24.291 18.1385 24.128 17.5271C23.965 16.9158 23.5649 16.3946 23.0165 16.0791C22.4681 15.7636 22.0681 15.2425 21.905 14.6311C21.742 14.0198 21.8294 13.3687 22.1479 12.822C22.3551 12.4604 22.6549 12.1605 23.0165 11.9534C24.1466 11.2924 24.534 9.84479 23.8851 8.70769V8.69626Z" stroke="#FF4847" stroke-width="2.5" stroke-linecap="round" stroke-linejoin="round"></path><path d="M13.1091 17.3127C14.9268 17.3127 16.4003 15.8392 16.4003 14.0215C16.4003 12.2038 14.9268 10.7302 13.1091 10.7302C11.2914 10.7302 9.81787 12.2038 9.81787 14.0215C9.81787 15.8392 11.2914 17.3127 13.1091 17.3127Z" stroke="#FF4847" stroke-width="2.5" stroke-linecap="round" stroke-linejoin="round"></path></svg>