<svg xmlns="http://www.w3.org/2000/svg" width="78" height="16" viewBox="0 0 78 16" fill="none"><path d="M0.5 15L2.96 0.999999H7.74C9.84667 0.999999 11.3933 1.51333 12.38 2.54C13.3667 3.56667 13.86 4.95333 13.86 6.7C13.86 8.32667 13.5 9.76667 12.78 11.02C12.0733 12.2733 11.08 13.2533 9.8 13.96C8.52 14.6533 7.01333 15 5.28 15H0.5ZM3.44 12.8H5.54C6.75333 12.8 7.78 12.56 8.62 12.08C9.47333 11.6 10.12 10.92 10.56 10.04C11 9.16 11.22 8.12 11.22 6.92C11.22 5.66667 10.9 4.73333 10.26 4.12C9.62 3.49333 8.61333 3.18 7.24 3.18H5.14L3.44 12.8ZM18.0764 15.24C16.9564 15.24 16.1364 14.9867 15.6164 14.48C15.0964 13.96 14.8364 13.34 14.8364 12.62C14.8364 11.5533 15.2831 10.7067 16.1764 10.08C17.0697 9.45333 18.2631 9.14 19.7564 9.14H22.2764L22.3164 8.9C22.3297 8.82 22.3364 8.74 22.3364 8.66C22.3497 8.56667 22.3564 8.48667 22.3564 8.42C22.3564 7.91333 22.1964 7.54 21.8764 7.3C21.5564 7.04667 21.1497 6.92 20.6564 6.92C20.1364 6.92 19.6564 7.04667 19.2164 7.3C18.7897 7.54 18.4831 7.9 18.2964 8.38H15.7964C15.9964 7.66 16.3431 7.03333 16.8364 6.5C17.3431 5.96667 17.9564 5.56 18.6764 5.28C19.3964 4.98667 20.1764 4.84 21.0164 4.84C22.2431 4.84 23.2031 5.11333 23.8964 5.66C24.6031 6.20667 24.9564 6.99333 24.9564 8.02C24.9564 8.15333 24.9497 8.3 24.9364 8.46C24.9231 8.60667 24.9031 8.75333 24.8764 8.9L23.7964 15H21.5164L21.6164 13.46C21.2297 13.9667 20.7431 14.3933 20.1564 14.74C19.5831 15.0733 18.8897 15.24 18.0764 15.24ZM19.0164 13.24C19.7497 13.24 20.3564 13 20.8364 12.52C21.3297 12.04 21.6897 11.4467 21.9164 10.74H19.7564C19.0897 10.74 18.5631 10.8733 18.1764 11.14C17.7897 11.4067 17.5964 11.7733 17.5964 12.24C17.5964 12.5733 17.7231 12.8267 17.9764 13C18.2431 13.16 18.5897 13.24 19.0164 13.24ZM30.4203 15.24C29.5136 15.24 28.7403 15.0867 28.1003 14.78C27.4736 14.4733 27.0003 14.0533 26.6803 13.52C26.3603 12.9867 26.227 12.38 26.2803 11.7H28.8403C28.827 12.1667 28.9803 12.5467 29.3003 12.84C29.6203 13.1333 30.1003 13.28 30.7403 13.28C31.3003 13.28 31.7336 13.16 32.0403 12.92C32.3603 12.68 32.5203 12.3733 32.5203 12C32.5203 11.6667 32.3536 11.4267 32.0203 11.28C31.687 11.12 31.2603 10.98 30.7403 10.86C30.1936 10.7267 29.6603 10.5533 29.1403 10.34C28.6203 10.1267 28.187 9.84667 27.8403 9.5C27.507 9.15333 27.3403 8.70667 27.3403 8.16C27.3403 7.52 27.527 6.95333 27.9003 6.46C28.287 5.95333 28.8136 5.56 29.4803 5.28C30.147 4.98667 30.9136 4.84 31.7803 4.84C32.9536 4.84 33.8803 5.12 34.5603 5.68C35.2403 6.24 35.567 7 35.5403 7.96H33.0803C33.067 7.61333 32.9136 7.33333 32.6203 7.12C32.3403 6.90667 31.967 6.8 31.5003 6.8C31.0203 6.8 30.627 6.90667 30.3203 7.12C30.027 7.32 29.8803 7.57333 29.8803 7.88C29.8803 8.17333 30.0536 8.4 30.4003 8.56C30.7603 8.70667 31.227 8.84667 31.8003 8.98C32.427 9.12667 32.987 9.30667 33.4803 9.52C33.987 9.73333 34.387 10.0133 34.6803 10.36C34.987 10.6933 35.1403 11.1333 35.1403 11.68C35.1403 12.4 34.9336 13.0267 34.5203 13.56C34.107 14.0933 33.5403 14.5067 32.8203 14.8C32.1136 15.0933 31.3136 15.24 30.4203 15.24ZM36.983 15L38.723 5.08H41.023L40.943 6.88C41.4096 6.26667 41.983 5.77333 42.663 5.4C43.3563 5.02667 44.123 4.84 44.963 4.84L44.483 7.54H43.783C42.9296 7.54 42.1963 7.74 41.583 8.14C40.9696 8.52667 40.5696 9.24667 40.383 10.3L39.543 15H36.983ZM48.7094 3.6C48.2427 3.6 47.856 3.46 47.5494 3.18C47.256 2.88667 47.1094 2.52667 47.1094 2.1C47.1094 1.67333 47.256 1.32 47.5494 1.04C47.856 0.746666 48.2427 0.599999 48.7094 0.599999C49.176 0.599999 49.556 0.746666 49.8494 1.04C50.156 1.32 50.3094 1.67333 50.3094 2.1C50.3094 2.52667 50.156 2.88667 49.8494 3.18C49.556 3.46 49.176 3.6 48.7094 3.6ZM45.1494 15L46.8894 5.08H49.4494L47.7094 15H45.1494ZM55.22 15.24C54.34 15.24 53.5733 15.0667 52.92 14.72C52.2667 14.36 51.76 13.86 51.4 13.22C51.0533 12.58 50.88 11.8333 50.88 10.98C50.88 10.1267 51.0333 9.32667 51.34 8.58C51.6467 7.83333 52.08 7.18 52.64 6.62C53.2 6.06 53.8533 5.62667 54.6 5.32C55.3467 5 56.16 4.84 57.04 4.84C58.32 4.84 59.34 5.18 60.1 5.86C60.8733 6.54 61.26 7.48 61.26 8.68H58.56C58.56 8.14667 58.38 7.74 58.02 7.46C57.66 7.16667 57.2067 7.02 56.66 7.02C56.0867 7.02 55.56 7.18667 55.08 7.52C54.6 7.84 54.22 8.28 53.94 8.84C53.66 9.4 53.52 10.0333 53.52 10.74C53.52 11.4467 53.7133 12.0133 54.1 12.44C54.4867 12.8533 54.9867 13.06 55.6 13.06C56.1467 13.06 56.6467 12.92 57.1 12.64C57.5667 12.3467 57.9 11.9333 58.1 11.4H60.78C60.5 12.1733 60.0867 12.8467 59.54 13.42C58.9933 13.9933 58.3467 14.44 57.6 14.76C56.8667 15.08 56.0733 15.24 55.22 15.24ZM67.2131 15.24C66.3465 15.24 65.5865 15.0467 64.9331 14.66C64.2798 14.2733 63.7665 13.7533 63.3931 13.1C63.0331 12.4333 62.8531 11.6733 62.8531 10.82C62.8531 9.98 62.9998 9.2 63.2931 8.48C63.5998 7.74667 64.0198 7.10667 64.5531 6.56C65.0998 6.01333 65.7331 5.59333 66.4531 5.3C67.1731 4.99333 67.9465 4.84 68.7731 4.84C69.6531 4.84 70.4198 5.02667 71.0731 5.4C71.7398 5.77333 72.2598 6.28667 72.6331 6.94C73.0065 7.59333 73.1931 8.35333 73.1931 9.22C73.1931 10.0733 73.0398 10.8667 72.7331 11.6C72.4265 12.32 71.9998 12.9533 71.4531 13.5C70.9198 14.0467 70.2865 14.4733 69.5531 14.78C68.8331 15.0867 68.0531 15.24 67.2131 15.24ZM67.5531 13.02C68.1265 13.02 68.6398 12.86 69.0931 12.54C69.5465 12.22 69.9065 11.7867 70.1731 11.24C70.4398 10.68 70.5731 10.0533 70.5731 9.36C70.5731 8.62667 70.3665 8.06 69.9531 7.66C69.5531 7.26 69.0665 7.06 68.4931 7.06C67.9331 7.06 67.4198 7.22 66.9531 7.54C66.4998 7.86 66.1398 8.3 65.8731 8.86C65.6065 9.40667 65.4731 10.0267 65.4731 10.72C65.4731 11.4533 65.6731 12.02 66.0731 12.42C66.4865 12.82 66.9798 13.02 67.5531 13.02Z" fill="#0E0605"></path><path d="M75.9016 15.14C75.4216 15.14 75.0349 14.9933 74.7416 14.7C74.4482 14.4067 74.3016 14.0533 74.3016 13.64C74.3016 13.2133 74.4482 12.8533 74.7416 12.56C75.0349 12.2667 75.4216 12.12 75.9016 12.12C76.3682 12.12 76.7482 12.2667 77.0416 12.56C77.3349 12.8533 77.4816 13.2133 77.4816 13.64C77.4816 14.0533 77.3349 14.4067 77.0416 14.7C76.7482 14.9933 76.3682 15.14 75.9016 15.14Z" fill="#FF4847"></path></svg>