<svg xmlns="http://www.w3.org/2000/svg" width="117" height="23" viewBox="0 0 117 23" fill="none"><path d="M0.75 22L4.44 0.999999H11.61C14.77 0.999999 17.09 1.77 18.57 3.31C20.05 4.85 20.79 6.93 20.79 9.55C20.79 11.99 20.25 14.15 19.17 16.03C18.11 17.91 16.62 19.38 14.7 20.44C12.78 21.48 10.52 22 7.92 22H0.75ZM5.16 18.7H8.31C10.13 18.7 11.67 18.34 12.93 17.62C14.21 16.9 15.18 15.88 15.84 14.56C16.5 13.24 16.83 11.68 16.83 9.88C16.83 8 16.35 6.6 15.39 5.68C14.43 4.74 12.92 4.27 10.86 4.27H7.71L5.16 18.7ZM27.1146 22.36C25.4346 22.36 24.2046 21.98 23.4246 21.22C22.6446 20.44 22.2546 19.51 22.2546 18.43C22.2546 16.83 22.9246 15.56 24.2646 14.62C25.6046 13.68 27.3946 13.21 29.6346 13.21H33.4146L33.4746 12.85C33.4946 12.73 33.5046 12.61 33.5046 12.49C33.5246 12.35 33.5346 12.23 33.5346 12.13C33.5346 11.37 33.2946 10.81 32.8146 10.45C32.3346 10.07 31.7246 9.88 30.9846 9.88C30.2046 9.88 29.4846 10.07 28.8246 10.45C28.1846 10.81 27.7246 11.35 27.4446 12.07H23.6946C23.9946 10.99 24.5146 10.05 25.2546 9.25C26.0146 8.45 26.9346 7.84 28.0146 7.42C29.0946 6.98 30.2646 6.76 31.5246 6.76C33.3646 6.76 34.8046 7.17 35.8446 7.99C36.9046 8.81 37.4346 9.99 37.4346 11.53C37.4346 11.73 37.4246 11.95 37.4046 12.19C37.3846 12.41 37.3546 12.63 37.3146 12.85L35.6946 22H32.2746L32.4246 19.69C31.8446 20.45 31.1146 21.09 30.2346 21.61C29.3746 22.11 28.3346 22.36 27.1146 22.36ZM28.5246 19.36C29.6246 19.36 30.5346 19 31.2546 18.28C31.9946 17.56 32.5346 16.67 32.8746 15.61H29.6346C28.6346 15.61 27.8446 15.81 27.2646 16.21C26.6846 16.61 26.3946 17.16 26.3946 17.86C26.3946 18.36 26.5846 18.74 26.9646 19C27.3646 19.24 27.8846 19.36 28.5246 19.36ZM45.6305 22.36C44.2705 22.36 43.1105 22.13 42.1505 21.67C41.2105 21.21 40.5005 20.58 40.0205 19.78C39.5405 18.98 39.3405 18.07 39.4205 17.05H43.2605C43.2405 17.75 43.4705 18.32 43.9505 18.76C44.4305 19.2 45.1505 19.42 46.1105 19.42C46.9505 19.42 47.6005 19.24 48.0605 18.88C48.5405 18.52 48.7805 18.06 48.7805 17.5C48.7805 17 48.5305 16.64 48.0305 16.42C47.5305 16.18 46.8905 15.97 46.1105 15.79C45.2905 15.59 44.4905 15.33 43.7105 15.01C42.9305 14.69 42.2805 14.27 41.7605 13.75C41.2605 13.23 41.0105 12.56 41.0105 11.74C41.0105 10.78 41.2905 9.93 41.8505 9.19C42.4305 8.43 43.2205 7.84 44.2205 7.42C45.2205 6.98 46.3705 6.76 47.6705 6.76C49.4305 6.76 50.8205 7.18 51.8405 8.02C52.8605 8.86 53.3505 10 53.3105 11.44H49.6205C49.6005 10.92 49.3705 10.5 48.9305 10.18C48.5105 9.86 47.9505 9.7 47.2505 9.7C46.5305 9.7 45.9405 9.86 45.4805 10.18C45.0405 10.48 44.8205 10.86 44.8205 11.32C44.8205 11.76 45.0805 12.1 45.6005 12.34C46.1405 12.56 46.8405 12.77 47.7005 12.97C48.6405 13.19 49.4805 13.46 50.2205 13.78C50.9805 14.1 51.5805 14.52 52.0205 15.04C52.4805 15.54 52.7105 16.2 52.7105 17.02C52.7105 18.1 52.4005 19.04 51.7805 19.84C51.1605 20.64 50.3105 21.26 49.2305 21.7C48.1705 22.14 46.9705 22.36 45.6305 22.36ZM55.4745 22L58.0845 7.12H61.5345L61.4145 9.82C62.1145 8.9 62.9745 8.16 63.9945 7.6C65.0345 7.04 66.1845 6.76 67.4445 6.76L66.7245 10.81H65.6745C64.3945 10.81 63.2945 11.11 62.3745 11.71C61.4545 12.29 60.8545 13.37 60.5745 14.95L59.3145 22H55.4745ZM73.0641 4.9C72.3641 4.9 71.7841 4.69 71.3241 4.27C70.8841 3.83 70.6641 3.29 70.6641 2.65C70.6641 2.01 70.8841 1.48 71.3241 1.06C71.7841 0.619999 72.3641 0.399999 73.0641 0.399999C73.7641 0.399999 74.3341 0.619999 74.7741 1.06C75.2341 1.48 75.4641 2.01 75.4641 2.65C75.4641 3.29 75.2341 3.83 74.7741 4.27C74.3341 4.69 73.7641 4.9 73.0641 4.9ZM67.7241 22L70.3341 7.12H74.1741L71.5641 22H67.7241ZM82.83 22.36C81.51 22.36 80.36 22.1 79.38 21.58C78.4 21.04 77.64 20.29 77.1 19.33C76.58 18.37 76.32 17.25 76.32 15.97C76.32 14.69 76.55 13.49 77.01 12.37C77.47 11.25 78.12 10.27 78.96 9.43C79.8 8.59 80.78 7.94 81.9 7.48C83.02 7 84.24 6.76 85.56 6.76C87.48 6.76 89.01 7.27 90.15 8.29C91.31 9.31 91.89 10.72 91.89 12.52H87.84C87.84 11.72 87.57 11.11 87.03 10.69C86.49 10.25 85.81 10.03 84.99 10.03C84.13 10.03 83.34 10.28 82.62 10.78C81.9 11.26 81.33 11.92 80.91 12.76C80.49 13.6 80.28 14.55 80.28 15.61C80.28 16.67 80.57 17.52 81.15 18.16C81.73 18.78 82.48 19.09 83.4 19.09C84.22 19.09 84.97 18.88 85.65 18.46C86.35 18.02 86.85 17.4 87.15 16.6H91.17C90.75 17.76 90.13 18.77 89.31 19.63C88.49 20.49 87.52 21.16 86.4 21.64C85.3 22.12 84.11 22.36 82.83 22.36ZM100.82 22.36C99.5197 22.36 98.3797 22.07 97.3997 21.49C96.4197 20.91 95.6497 20.13 95.0897 19.15C94.5497 18.15 94.2797 17.01 94.2797 15.73C94.2797 14.47 94.4997 13.3 94.9397 12.22C95.3997 11.12 96.0297 10.16 96.8297 9.34C97.6497 8.52 98.5997 7.89 99.6797 7.45C100.76 6.99 101.92 6.76 103.16 6.76C104.48 6.76 105.63 7.04 106.61 7.6C107.61 8.16 108.39 8.93 108.95 9.91C109.51 10.89 109.79 12.03 109.79 13.33C109.79 14.61 109.56 15.8 109.1 16.9C108.64 17.98 108 18.93 107.18 19.75C106.38 20.57 105.43 21.21 104.33 21.67C103.25 22.13 102.08 22.36 100.82 22.36ZM101.33 19.03C102.19 19.03 102.96 18.79 103.64 18.31C104.32 17.83 104.86 17.18 105.26 16.36C105.66 15.52 105.86 14.58 105.86 13.54C105.86 12.44 105.55 11.59 104.93 10.99C104.33 10.39 103.6 10.09 102.74 10.09C101.9 10.09 101.13 10.33 100.43 10.81C99.7497 11.29 99.2097 11.95 98.8097 12.79C98.4097 13.61 98.2097 14.54 98.2097 15.58C98.2097 16.68 98.5097 17.53 99.1097 18.13C99.7297 18.73 100.47 19.03 101.33 19.03Z" fill="white"></path><path d="M113.852 22.21C113.132 22.21 112.552 21.99 112.112 21.55C111.672 21.11 111.452 20.58 111.452 19.96C111.452 19.32 111.672 18.78 112.112 18.34C112.552 17.9 113.132 17.68 113.852 17.68C114.552 17.68 115.122 17.9 115.562 18.34C116.002 18.78 116.222 19.32 116.222 19.96C116.222 20.58 116.002 21.11 115.562 21.55C115.122 21.99 114.552 22.21 113.852 22.21Z" fill="#FF9515"></path></svg>