<svg xmlns="http://www.w3.org/2000/svg" width="24" height="25" viewBox="0 0 24 25" fill="none"><path d="M6.6 16.822C7.07739 16.822 7.53523 16.6323 7.87279 16.2948C8.21036 15.9572 8.4 15.4994 8.4 15.022C8.40586 14.9621 8.40586 14.9018 8.4 14.842L11.748 11.494H12.024H12.3L14.232 13.426C14.232 13.426 14.232 13.486 14.232 13.522C14.232 13.9994 14.4216 14.4572 14.7592 14.7948C15.0968 15.1323 15.5546 15.322 16.032 15.322C16.5094 15.322 16.9672 15.1323 17.3048 14.7948C17.6424 14.4572 17.832 13.9994 17.832 13.522V13.426L22.2 9.02197C22.556 9.02197 22.904 8.91641 23.2 8.71862C23.496 8.52083 23.7267 8.23971 23.863 7.9108C23.9992 7.5819 24.0349 7.21998 23.9654 6.87081C23.896 6.52164 23.7245 6.20091 23.4728 5.94918C23.2211 5.69745 22.9003 5.52601 22.5512 5.45656C22.202 5.38711 21.8401 5.42275 21.5112 5.55899C21.1823 5.69523 20.9011 5.92594 20.7034 6.22195C20.5056 6.51795 20.4 6.86597 20.4 7.22197C20.3941 7.28183 20.3941 7.34212 20.4 7.40197L16.068 11.734H15.876L13.8 9.62197C13.8 9.14458 13.6104 8.68675 13.2728 8.34918C12.9352 8.01162 12.4774 7.82197 12 7.82197C11.5226 7.82197 11.0648 8.01162 10.7272 8.34918C10.3896 8.68675 10.2 9.14458 10.2 9.62197L6.6 13.222C6.12261 13.222 5.66477 13.4116 5.32721 13.7492C4.98964 14.0867 4.8 14.5446 4.8 15.022C4.8 15.4994 4.98964 15.9572 5.32721 16.2948C5.66477 16.6323 6.12261 16.822 6.6 16.822ZM22.8 21.622H2.4V1.22197C2.4 0.903713 2.27357 0.598488 2.04853 0.373444C1.82348 0.148401 1.51826 0.0219727 1.2 0.0219727C0.88174 0.0219727 0.576515 0.148401 0.351472 0.373444C0.126428 0.598488 0 0.903713 0 1.22197V22.822C0 23.1402 0.126428 23.4455 0.351472 23.6705C0.576515 23.8955 0.88174 24.022 1.2 24.022H22.8C23.1183 24.022 23.4235 23.8955 23.6485 23.6705C23.8736 23.4455 24 23.1402 24 22.822C24 22.5037 23.8736 22.1985 23.6485 21.9734C23.4235 21.7484 23.1183 21.622 22.8 21.622Z" fill="#FF4847"></path></svg>