<svg xmlns="http://www.w3.org/2000/svg" width="21" height="22" viewBox="0 0 21 22" fill="none"><path fill-rule="evenodd" clip-rule="evenodd" d="M19.2376 6.58388L18.5899 5.46007C18.0421 4.50916 16.8279 4.18111 15.8757 4.72673C15.4224 4.99375 14.8815 5.0695 14.3723 4.9373C13.8632 4.80509 13.4275 4.47577 13.1614 4.02197C12.9902 3.73353 12.8982 3.40499 12.8947 3.06959C12.9102 2.53186 12.7073 2.01076 12.3323 1.62503C11.9573 1.23929 11.4422 1.02175 10.9042 1.02197H9.59947C9.07243 1.02197 8.56712 1.23198 8.19535 1.60554C7.82357 1.97911 7.61598 2.48542 7.61852 3.01245C7.6029 4.10058 6.71629 4.97447 5.62804 4.97435C5.29264 4.97087 4.9641 4.87888 4.67566 4.70769C3.72344 4.16207 2.50926 4.49011 1.96137 5.44102L1.26614 6.58388C0.718911 7.5336 1.04249 8.74702 1.98994 9.29816C2.60581 9.65373 2.98519 10.3108 2.98519 11.022C2.98519 11.7331 2.60581 12.3902 1.98994 12.7458C1.04369 13.2932 0.719761 14.5037 1.26614 15.4505L1.92328 16.5839C2.17999 17.0471 2.6107 17.3889 3.1201 17.5337C3.62951 17.6784 4.17561 17.6143 4.63756 17.3553C5.09169 17.0903 5.63285 17.0177 6.14076 17.1536C6.64867 17.2896 7.08124 17.6227 7.34233 18.0791C7.51352 18.3676 7.60551 18.6961 7.60899 19.0315C7.60899 20.1308 8.50016 21.022 9.59947 21.022H10.9042C11.9998 21.022 12.8895 20.1366 12.8947 19.041C12.8922 18.5123 13.1011 18.0046 13.4749 17.6307C13.8487 17.2569 14.3565 17.048 14.8852 17.0505C15.2198 17.0595 15.547 17.1511 15.8376 17.3172C16.7873 17.8644 18.0007 17.5409 18.5519 16.5934L19.2376 15.4505C19.503 14.995 19.5758 14.4524 19.44 13.9429C19.3041 13.4335 18.9708 12.9992 18.5138 12.7363C18.0567 12.4733 17.7234 12.0391 17.5875 11.5296C17.4517 11.0201 17.5245 10.4776 17.7899 10.022C17.9625 9.72062 18.2124 9.47077 18.5138 9.29816C19.4555 8.74732 19.7784 7.54099 19.2376 6.5934V6.58388Z" stroke="white" stroke-width="1.5" stroke-linecap="round" stroke-linejoin="round"></path><path d="M10.2605 13.7655C11.7753 13.7655 13.0032 12.5376 13.0032 11.0228C13.0032 9.5081 11.7753 8.28015 10.2605 8.28015C8.74577 8.28015 7.51782 9.5081 7.51782 11.0228C7.51782 12.5376 8.74577 13.7655 10.2605 13.7655Z" stroke="white" stroke-width="1.5" stroke-linecap="round" stroke-linejoin="round"></path></svg>