<svg xmlns="http://www.w3.org/2000/svg" width="26" height="26" viewBox="0 0 26 26" fill="none"><path d="M7.42826 14.8606H7.42853C8.48382 14.8583 9.49522 14.438 10.2414 13.6918C10.9876 12.9456 11.4079 11.9342 11.4102 10.8789V10.8786C11.4102 10.0911 11.1767 9.32121 10.7391 8.66638C10.3016 8.01155 9.67969 7.50117 8.95209 7.19979C8.22448 6.8984 7.42384 6.81955 6.65142 6.97319C5.87899 7.12684 5.16948 7.50608 4.61259 8.06297C4.0557 8.61986 3.67646 9.32937 3.52282 10.1018C3.36917 10.8742 3.44803 11.6749 3.74941 12.4025C4.0508 13.1301 4.56117 13.752 5.216 14.1895C5.87083 14.6271 6.6407 14.8606 7.42826 14.8606ZM15.9993 10.5751H15.9995C17.2821 10.5728 18.5115 10.0622 19.4185 9.15526C20.3254 8.2483 20.836 7.01888 20.8383 5.73626V5.73603C20.8383 4.77896 20.5545 3.84337 20.0228 3.0476C19.4911 2.25182 18.7353 1.63158 17.8511 1.26533C16.9669 0.899069 15.9939 0.80324 15.0552 0.989956C14.1165 1.17667 13.2543 1.63755 12.5775 2.3143C11.9008 2.99106 11.4399 3.85329 11.2532 4.79198C11.0665 5.73066 11.1623 6.70364 11.5286 7.58786C11.8948 8.47208 12.5151 9.22784 13.3108 9.75956C14.1066 10.2913 15.0422 10.5751 15.9993 10.5751ZM6.30725 9.20094C6.63907 8.97922 7.02918 8.86088 7.42826 8.86088C7.69323 8.86088 7.95561 8.91307 8.20042 9.01448C8.44522 9.11588 8.66766 9.2645 8.85502 9.45187C9.04239 9.63924 9.19102 9.86167 9.29242 10.1065C9.39382 10.3513 9.44601 10.6137 9.44601 10.8786C9.44601 11.2777 9.32767 11.6678 9.10596 11.9996C8.88424 12.3315 8.56911 12.5901 8.20042 12.7428C7.83172 12.8955 7.42602 12.9355 7.03461 12.8576C6.64321 12.7798 6.28368 12.5876 6.00149 12.3054C5.7193 12.0232 5.52713 11.6637 5.44928 11.2723C5.37142 10.8809 5.41138 10.4752 5.5641 10.1065C5.71682 9.73778 5.97544 9.42265 6.30725 9.20094ZM14.4021 3.34568C14.8749 3.02978 15.4307 2.86118 15.9993 2.86118C16.7617 2.86118 17.493 3.16406 18.0321 3.7032C18.5712 4.24234 18.8741 4.97357 18.8741 5.73603C18.8741 6.30462 18.7055 6.86045 18.3896 7.33321C18.0737 7.80598 17.6247 8.17446 17.0994 8.39205C16.5741 8.60964 15.9961 8.66657 15.4384 8.55564C14.8807 8.44472 14.3685 8.17091 13.9664 7.76886C13.5644 7.3668 13.2906 6.85455 13.1797 6.29689C13.0687 5.73922 13.1257 5.16118 13.3433 4.63587C13.5608 4.11056 13.9293 3.66157 14.4021 3.34568ZM5.71406 25.1458H9.14246C10.4259 25.1458 11.6567 24.636 12.5642 23.7285C13.4717 22.821 13.9815 21.5901 13.9815 20.3067C13.9815 19.0233 13.4717 17.7925 12.5642 16.885C11.6567 15.9775 10.4259 15.4677 9.14246 15.4677H5.71406C4.43066 15.4677 3.19983 15.9775 2.29233 16.885C1.38483 17.7925 0.875 19.0233 0.875 20.3067C0.875 21.5901 1.38483 22.821 2.29233 23.7285C3.19983 24.636 4.43066 25.1458 5.71406 25.1458ZM3.68123 18.2739C4.22037 17.7348 4.9516 17.4319 5.71406 17.4319H9.14246C9.90492 17.4319 10.6361 17.7348 11.1753 18.2739C11.7144 18.8131 12.0173 19.5443 12.0173 20.3067C12.0173 21.0692 11.7144 21.8004 11.1753 22.3396C10.6361 22.8787 9.90492 23.1816 9.14246 23.1816H5.71406C4.9516 23.1816 4.22037 22.8787 3.68123 22.3396C3.14209 21.8004 2.8392 21.0692 2.8392 20.3067C2.8392 19.5443 3.14209 18.8131 3.68123 18.2739Z" fill="#FF4847" stroke="#FF4847" stroke-width="0.25"></path><path d="M9.57146 25.1468H18.571C20.3091 25.1468 21.9759 24.4564 23.2049 23.2274C24.4338 21.9984 25.1243 20.3316 25.1243 18.5935C25.1243 16.8555 24.4338 15.1887 23.2049 13.9597C21.9759 12.7307 20.3091 12.0403 18.571 12.0403H13.4284C13.1679 12.0403 12.9181 12.1438 12.734 12.3279C12.5498 12.5121 12.4463 12.7619 12.4463 13.0224C12.4463 13.2829 12.5498 13.5327 12.734 13.7168C12.9181 13.901 13.1679 14.0045 13.4284 14.0045H18.571C19.7881 14.0045 20.9554 14.488 21.816 15.3486C22.6766 16.2092 23.1601 17.3764 23.1601 18.5935C23.1601 19.8106 22.6766 20.9779 21.816 21.8385C20.9554 22.6991 19.7881 23.1826 18.571 23.1826H9.57146C9.31099 23.1826 9.06119 23.2861 8.87701 23.4702C8.69283 23.6544 8.58936 23.9042 8.58936 24.1647C8.58936 24.4252 8.69283 24.675 8.87701 24.8591C9.06119 25.0433 9.31099 25.1468 9.57146 25.1468Z" fill="#FF4847" stroke="#FF4847" stroke-width="0.25"></path></svg>