<svg xmlns="http://www.w3.org/2000/svg" width="16" height="16" viewBox="0 0 16 16" fill="none"><path fill-rule="evenodd" clip-rule="evenodd" d="M8 16C3.58172 16 0 12.4183 0 8C0 3.58172 3.58172 0 8 0C12.4183 0 16 3.58172 16 8C16 12.4183 12.4183 16 8 16ZM6.97448 9.22669L5.18092 7.43313C4.91077 7.16297 4.47277 7.16297 4.20261 7.43313C3.93246 7.70328 3.93246 8.14128 4.20261 8.41143L6.48533 10.6941C6.75548 10.9643 7.19349 10.9643 7.46364 10.6941L11.3769 6.78092C11.647 6.51077 11.647 6.07277 11.3769 5.80261C11.1067 5.53246 10.6687 5.53246 10.3986 5.80261L6.97448 9.22669Z" fill="#1D1E25"></path></svg>