<svg xmlns="http://www.w3.org/2000/svg" width="22" height="26" viewBox="0 0 22 26" fill="none"><path d="M3.36296 0.896973H3.36329L14.1088 0.925103C14.1089 0.925103 14.1089 0.925103 14.109 0.925103L14.1091 0.925104L14.1088 1.0501L3.36296 0.896973ZM3.36296 0.896973C1.99152 0.896973 0.875 2.00217 0.875 3.36618V22.6731C0.875 24.0144 2.02513 25.147 3.3864 25.147H19.2801C20.6223 25.147 21.7071 24.0335 21.7071 22.6684V8.22338C21.7071 7.75557 21.5308 7.32398 21.2096 7.01305L21.1257 7.0997L21.2096 7.01303L15.504 1.4903M3.36296 0.896973L15.504 1.4903M15.504 1.4903C15.504 1.49026 15.504 1.49021 15.5039 1.49017L15.504 1.4903ZM15.5184 6.56837V4.46258L18.0333 6.89346H15.9045C15.6863 6.89346 15.5184 6.72406 15.5184 6.56837ZM19.2801 23.0216H3.3864C3.29098 23.0216 3.19274 22.9792 3.11766 22.9092C3.04232 22.839 3.00037 22.7508 3.00037 22.6684V3.36618C3.00037 3.19144 3.16928 3.02243 3.3628 3.02234C3.36285 3.02234 3.36291 3.02234 3.36296 3.02234L13.3931 3.05012V6.56837C13.3931 7.92024 14.5209 9.01882 15.9045 9.01882H19.5818V22.6684C19.5818 22.8594 19.4552 23.0216 19.2801 23.0216Z" fill="#FF4847" stroke="#FF4847" stroke-width="0.25"></path><path d="M4.95435 13.5353C4.95435 14.1201 5.43228 14.598 6.01704 14.598H14.2218C14.8065 14.598 15.2844 14.1201 15.2844 13.5353C15.2844 12.9506 14.8065 12.4727 14.2218 12.4727H6.01704C5.43228 12.4727 4.95435 12.9506 4.95435 13.5353ZM5.97015 10.8473H11.4087C11.9935 10.8473 12.4714 10.3694 12.4714 9.78461C12.4714 9.19985 11.9935 8.72192 11.4087 8.72192H5.97015C5.38539 8.72192 4.90747 9.19985 4.90747 9.78461C4.90747 10.3694 5.38539 10.8473 5.97015 10.8473ZM16.566 16.2234H6.01704C5.43228 16.2234 4.95435 16.7013 4.95435 17.2861C4.95435 17.8708 5.43228 18.3488 6.01704 18.3488H16.566C17.1507 18.3488 17.6287 17.8708 17.6287 17.2861C17.6287 16.7013 17.1507 16.2234 16.566 16.2234Z" fill="#FF4847" stroke="#FF4847" stroke-width="0.25"></path></svg>